<svg width="43" height="55" viewBox="0 0 43 55" fill="none" xmlns="http://www.w3.org/2000/svg">
<mask id="path-1-outside-1" maskUnits="userSpaceOnUse" x="0" y="0" width="43" height="55" fill="black">
<rect fill="white" width="43" height="55"/>
<path d="M34.6793 48.2458H30.8252V44.6753C30.8252 44.4829 30.7484 44.2984 30.6118 44.1624C30.4752 44.0264 30.2898 43.95 30.0966 43.95H26.0448V40.6584C29.8087 39.4258 33.1929 37.2542 35.8751 34.3506C38.5572 31.447 40.4479 27.908 41.367 24.0709C42.2861 20.2337 42.2031 16.2262 41.1258 12.4301C40.0484 8.63395 38.0127 5.17566 35.2126 2.38466L34.0353 1.2126C33.9677 1.1452 33.8874 1.09174 33.799 1.05526C33.7107 1.01878 33.616 1 33.5203 1C33.4246 1 33.3299 1.01878 33.2416 1.05526C33.1532 1.09174 33.0729 1.1452 33.0053 1.2126L27.7941 6.40069C24.8475 4.26955 21.2339 3.25505 17.6031 3.53966C13.9723 3.82428 10.5626 5.38933 7.98744 7.95331C5.41225 10.5173 3.84054 13.9119 3.55501 17.5266C3.26948 21.1413 4.28887 24.7388 6.42982 27.672L1.21354 32.8634C1.14585 32.9307 1.09214 33.0106 1.0555 33.0986C1.01886 33.1865 1 33.2808 1 33.3761C1 33.4713 1.01886 33.5656 1.0555 33.6536C1.09214 33.7416 1.14585 33.8215 1.21354 33.8888L2.39168 35.06C6.29137 38.9433 11.4562 41.3119 16.9552 41.7389V43.9504H12.9021C12.7089 43.9504 12.5236 44.0268 12.3869 44.1628C12.2503 44.2988 12.1735 44.4833 12.1735 44.6757V48.2458H8.32025C7.68563 48.2465 7.07722 48.4979 6.62847 48.9446C6.17972 49.3914 5.92728 49.9971 5.92651 50.6289V53.2747C5.92651 53.4671 6.00326 53.6516 6.13989 53.7876C6.27652 53.9236 6.46182 54 6.65504 54H36.3445C36.5377 54 36.723 53.9236 36.8596 53.7876C36.9963 53.6516 37.073 53.4671 37.073 53.2747V50.6289C37.0723 49.9971 36.8198 49.3914 36.3711 48.9446C35.9223 48.4979 35.3139 48.2465 34.6793 48.2458ZM16.9623 36.9594C13.5469 36.6333 10.2934 35.3534 7.57673 33.2671L9.81602 31.0398C12.0973 32.693 14.7936 33.6854 17.6064 33.9071C20.4192 34.1289 23.2388 33.5713 25.7529 32.2962C28.2671 31.021 30.3777 29.078 31.8512 26.6824C33.3246 24.2867 34.1033 21.5318 34.101 18.7227C34.0947 15.5073 33.0723 12.3754 31.1786 9.7706L33.4104 7.54831C36.1097 11.088 37.4358 15.4783 37.1452 19.9131C36.8546 24.3479 34.9668 28.5295 31.8284 31.6901C30.0573 33.4562 27.9387 34.8389 25.6056 35.7517C25.3851 35.4396 25.0925 35.1847 24.7524 35.0087C24.4123 34.8327 24.0347 34.7407 23.6514 34.7405H19.3489C18.7429 34.7411 18.1597 34.9704 17.7168 35.3822C17.2739 35.794 17.0043 36.3576 16.9623 36.9594ZM6.64838 25.3133C5.64751 23.4892 5.07545 21.4628 4.97526 19.3867C5.01924 19.3854 5.06301 19.38 5.10598 19.3705L5.66174 19.2495L7.48931 20.7046C7.56761 20.7675 7.65823 20.8134 7.75536 20.8393C7.8525 20.8653 7.95401 20.8708 8.0534 20.8555L10.403 20.5007L11.6902 22.1395L11.6707 24.3949L8.72614 24.7377C8.63078 24.7488 8.53855 24.7785 8.45475 24.8251C8.37096 24.8718 8.29724 24.9345 8.23782 25.0096L7.23536 26.279C7.02846 25.9678 6.83113 25.6453 6.64963 25.315L6.64838 25.3133ZM24.9286 13.3108L27.7179 15.1054L28.0884 17.1876L26.1209 19.1492C25.9843 19.2852 25.9075 19.4696 25.9074 19.6619V22.1672L24.7055 23.3625C24.5689 23.4985 24.492 23.6829 24.4919 23.8752V25.3527L22.1519 27.6828L20.4813 26.0192V22.2087C20.4813 22.0162 20.4044 21.8317 20.2677 21.6956L17.031 18.4732C16.8943 18.3372 16.7089 18.2607 16.5156 18.2606H14.064L12.3326 16.5369V12.9349L15.2138 10.0686L17.0843 9.33501L18.2345 10.4806C18.3519 10.5967 18.5054 10.6697 18.67 10.6878L23.5382 11.222C23.6691 11.2363 23.8015 11.215 23.9212 11.1603L26.807 9.84396C26.936 9.78522 27.0449 9.69028 27.1205 9.5708C27.196 9.45131 27.2349 9.31247 27.2323 9.1713C27.2298 9.03014 27.1859 8.89279 27.106 8.7761C27.0262 8.65941 26.9139 8.56846 26.7829 8.5144L22.0116 6.54575C21.9817 6.53368 21.9512 6.52344 21.92 6.51508L16.6184 5.11424C19.4157 4.69138 22.2759 5.12295 24.8217 6.35199C27.3675 7.58103 29.479 9.54975 30.8776 11.9983L28.5929 10.7839C28.4957 10.7322 28.3879 10.7032 28.2777 10.699C28.1675 10.6949 28.0578 10.7157 27.9568 10.7599L25.0323 12.0393C24.912 12.0921 24.8082 12.1763 24.732 12.283C24.6558 12.3897 24.6101 12.515 24.5996 12.6455C24.5891 12.776 24.6142 12.9069 24.6724 13.0243C24.7305 13.1417 24.8195 13.2413 24.9299 13.3125L24.9286 13.3108ZM28.9576 7.29177L33.5203 2.74938L34.1826 3.40877C36.7822 5.99497 38.6809 9.19494 39.7013 12.7098C40.7218 16.2246 40.8307 19.9396 40.018 23.5077C39.2052 27.0758 37.4972 30.3806 35.0536 33.1133C32.6101 35.8461 29.5106 37.9176 26.0448 39.1345V37.1451C28.6012 36.1583 30.922 34.6498 32.858 32.7167C36.3494 29.2022 38.4028 24.5204 38.619 19.582C38.8351 14.6437 37.1985 9.80181 34.0274 5.99826C33.9624 5.92125 33.8821 5.85851 33.7916 5.81406C33.701 5.7696 33.6021 5.74439 33.5012 5.74002C33.4003 5.73565 33.2996 5.75223 33.2055 5.7887C33.1114 5.82517 33.0259 5.88072 32.9545 5.95184L30.284 8.61221L28.9576 7.29177ZM14.4703 5.63396V5.64184C14.4995 5.77133 14.5638 5.89038 14.6562 5.98603C14.7486 6.08169 14.8656 6.15028 14.9944 6.18435L21.5 7.90598L24.6814 9.21855L23.497 9.75733L19.0842 9.27284L17.777 7.97146C17.6767 7.87143 17.5492 7.80279 17.4102 7.774C17.2712 7.74521 17.1268 7.75752 16.9947 7.80941L14.5386 8.7726C14.4457 8.80914 14.3614 8.8643 14.2909 8.93465L11.0907 12.1201C10.9541 12.2561 10.8773 12.4405 10.8772 12.6328V16.8378C10.8773 17.0301 10.9541 17.2146 11.0907 17.3505L13.2489 19.4986C13.3164 19.566 13.3967 19.6195 13.4851 19.656C13.5734 19.6925 13.6682 19.7113 13.7638 19.7112H16.2129L19.023 22.5092V26.3221C19.0229 26.4173 19.0418 26.5116 19.0783 26.5996C19.1149 26.6875 19.1685 26.7675 19.2361 26.8348L21.6357 29.2241C21.7033 29.2915 21.7836 29.345 21.872 29.3815C21.9604 29.418 22.0552 29.4367 22.1509 29.4367C22.2466 29.4367 22.3413 29.418 22.4297 29.3815C22.5181 29.345 22.5984 29.2915 22.666 29.2241L25.7359 26.1679C25.8041 26.1003 25.8582 26.0199 25.895 25.9313C25.9318 25.8428 25.9506 25.7478 25.9503 25.652V24.1757L27.1505 22.9804C27.2871 22.8445 27.3639 22.66 27.364 22.4677V19.9624L29.3877 17.9477C29.4707 17.8653 29.5324 17.764 29.5677 17.6527C29.6029 17.5413 29.6105 17.4232 29.59 17.3082L29.0971 14.5447C29.0798 14.4465 29.0423 14.3531 28.987 14.27C28.9317 14.187 28.8598 14.1163 28.7757 14.0622L26.857 12.8276L28.2191 12.2316L30.2149 13.2926L31.9816 14.5177C32.9645 17.5674 32.8493 20.8627 31.6559 23.8369C30.4624 26.8111 28.2652 29.2784 25.4422 30.8144C22.6193 32.3504 19.3469 32.8591 16.1879 32.2531C13.029 31.6471 10.1808 29.9642 8.13333 27.4938L9.1974 26.1468L12.4791 25.7647C12.6554 25.7442 12.8181 25.6603 12.9367 25.5288C13.0553 25.3974 13.1216 25.2273 13.1231 25.0506L13.1506 21.9008C13.1518 21.7368 13.0974 21.5772 12.9962 21.4478L11.2893 19.2752C11.21 19.1735 11.1047 19.0949 10.9845 19.0474C10.8643 18.9998 10.7335 18.9852 10.6058 19.005L8.14956 19.3755L6.29952 17.9025C6.21482 17.835 6.11599 17.7872 6.01031 17.7627C5.90463 17.7382 5.79477 17.7375 5.6888 17.7608L5.09182 17.8905L4.99024 17.8246C5.17394 15.085 6.17399 12.4622 7.86258 10.2913C9.55116 8.12036 11.8516 6.50001 14.4699 5.63728L14.4703 5.63396ZM3.42078 34.0355L2.75844 33.3761L7.32112 28.8333L8.64621 30.1521L5.97397 32.8124C5.90256 32.8835 5.84678 32.9686 5.81015 33.0622C5.77352 33.1559 5.75685 33.2561 5.76119 33.3566C5.76554 33.457 5.7908 33.5554 5.83539 33.6456C5.87997 33.7358 5.9429 33.8158 6.02018 33.8805C9.1102 36.4756 12.9285 38.0597 16.9552 38.417V40.2895C11.8428 39.864 7.04732 37.6481 3.42078 34.0355ZM18.4123 37.1256C18.4126 36.8784 18.5114 36.6414 18.687 36.4666C18.8626 36.2918 19.1006 36.1934 19.3489 36.1931H23.651C23.8981 36.1974 24.1339 36.297 24.3086 36.4709C24.4834 36.6449 24.5834 36.8796 24.5877 37.1256V43.9504H18.4123V37.1256ZM13.6319 45.401H29.3681V48.2458H13.6319V45.401ZM35.616 52.5498H7.38357V50.6293C7.3839 50.382 7.48269 50.1451 7.65828 49.9702C7.83387 49.7954 8.07193 49.6971 8.32025 49.6968H34.6793C34.9276 49.6971 35.1657 49.7954 35.3413 49.9702C35.5168 50.1451 35.6156 50.382 35.616 50.6293V52.5498Z"/>
<path d="M21.5 38.2069C21.4043 38.2069 21.3095 38.2256 21.2211 38.262C21.1327 38.2985 21.0524 38.3519 20.9847 38.4192C20.917 38.4866 20.8634 38.5666 20.8268 38.6546C20.7902 38.7426 20.7714 38.8369 20.7714 38.9322V41.2117C20.7714 41.4041 20.8482 41.5885 20.9848 41.7246C21.1215 41.8606 21.3068 41.937 21.5 41.937C21.6932 41.937 21.8785 41.8606 22.0151 41.7246C22.1518 41.5885 22.2285 41.4041 22.2285 41.2117V38.9322C22.2286 38.8369 22.2098 38.7426 22.1732 38.6546C22.1366 38.5666 22.0829 38.4866 22.0152 38.4192C21.9476 38.3519 21.8673 38.2985 21.7788 38.262C21.6904 38.2256 21.5957 38.2069 21.5 38.2069Z"/>
</mask>
<path d="M34.6793 48.2458H30.8252V44.6753C30.8252 44.4829 30.7484 44.2984 30.6118 44.1624C30.4752 44.0264 30.2898 43.95 30.0966 43.95H26.0448V40.6584C29.8087 39.4258 33.1929 37.2542 35.8751 34.3506C38.5572 31.447 40.4479 27.908 41.367 24.0709C42.2861 20.2337 42.2031 16.2262 41.1258 12.4301C40.0484 8.63395 38.0127 5.17566 35.2126 2.38466L34.0353 1.2126C33.9677 1.1452 33.8874 1.09174 33.799 1.05526C33.7107 1.01878 33.616 1 33.5203 1C33.4246 1 33.3299 1.01878 33.2416 1.05526C33.1532 1.09174 33.0729 1.1452 33.0053 1.2126L27.7941 6.40069C24.8475 4.26955 21.2339 3.25505 17.6031 3.53966C13.9723 3.82428 10.5626 5.38933 7.98744 7.95331C5.41225 10.5173 3.84054 13.9119 3.55501 17.5266C3.26948 21.1413 4.28887 24.7388 6.42982 27.672L1.21354 32.8634C1.14585 32.9307 1.09214 33.0106 1.0555 33.0986C1.01886 33.1865 1 33.2808 1 33.3761C1 33.4713 1.01886 33.5656 1.0555 33.6536C1.09214 33.7416 1.14585 33.8215 1.21354 33.8888L2.39168 35.06C6.29137 38.9433 11.4562 41.3119 16.9552 41.7389V43.9504H12.9021C12.7089 43.9504 12.5236 44.0268 12.3869 44.1628C12.2503 44.2988 12.1735 44.4833 12.1735 44.6757V48.2458H8.32025C7.68563 48.2465 7.07722 48.4979 6.62847 48.9446C6.17972 49.3914 5.92728 49.9971 5.92651 50.6289V53.2747C5.92651 53.4671 6.00326 53.6516 6.13989 53.7876C6.27652 53.9236 6.46182 54 6.65504 54H36.3445C36.5377 54 36.723 53.9236 36.8596 53.7876C36.9963 53.6516 37.073 53.4671 37.073 53.2747V50.6289C37.0723 49.9971 36.8198 49.3914 36.3711 48.9446C35.9223 48.4979 35.3139 48.2465 34.6793 48.2458ZM16.9623 36.9594C13.5469 36.6333 10.2934 35.3534 7.57673 33.2671L9.81602 31.0398C12.0973 32.693 14.7936 33.6854 17.6064 33.9071C20.4192 34.1289 23.2388 33.5713 25.7529 32.2962C28.2671 31.021 30.3777 29.078 31.8512 26.6824C33.3246 24.2867 34.1033 21.5318 34.101 18.7227C34.0947 15.5073 33.0723 12.3754 31.1786 9.7706L33.4104 7.54831C36.1097 11.088 37.4358 15.4783 37.1452 19.9131C36.8546 24.3479 34.9668 28.5295 31.8284 31.6901C30.0573 33.4562 27.9387 34.8389 25.6056 35.7517C25.3851 35.4396 25.0925 35.1847 24.7524 35.0087C24.4123 34.8327 24.0347 34.7407 23.6514 34.7405H19.3489C18.7429 34.7411 18.1597 34.9704 17.7168 35.3822C17.2739 35.794 17.0043 36.3576 16.9623 36.9594ZM6.64838 25.3133C5.64751 23.4892 5.07545 21.4628 4.97526 19.3867C5.01924 19.3854 5.06301 19.38 5.10598 19.3705L5.66174 19.2495L7.48931 20.7046C7.56761 20.7675 7.65823 20.8134 7.75536 20.8393C7.8525 20.8653 7.95401 20.8708 8.0534 20.8555L10.403 20.5007L11.6902 22.1395L11.6707 24.3949L8.72614 24.7377C8.63078 24.7488 8.53855 24.7785 8.45475 24.8251C8.37096 24.8718 8.29724 24.9345 8.23782 25.0096L7.23536 26.279C7.02846 25.9678 6.83113 25.6453 6.64963 25.315L6.64838 25.3133ZM24.9286 13.3108L27.7179 15.1054L28.0884 17.1876L26.1209 19.1492C25.9843 19.2852 25.9075 19.4696 25.9074 19.6619V22.1672L24.7055 23.3625C24.5689 23.4985 24.492 23.6829 24.4919 23.8752V25.3527L22.1519 27.6828L20.4813 26.0192V22.2087C20.4813 22.0162 20.4044 21.8317 20.2677 21.6956L17.031 18.4732C16.8943 18.3372 16.7089 18.2607 16.5156 18.2606H14.064L12.3326 16.5369V12.9349L15.2138 10.0686L17.0843 9.33501L18.2345 10.4806C18.3519 10.5967 18.5054 10.6697 18.67 10.6878L23.5382 11.222C23.6691 11.2363 23.8015 11.215 23.9212 11.1603L26.807 9.84396C26.936 9.78522 27.0449 9.69028 27.1205 9.5708C27.196 9.45131 27.2349 9.31247 27.2323 9.1713C27.2298 9.03014 27.1859 8.89279 27.106 8.7761C27.0262 8.65941 26.9139 8.56846 26.7829 8.5144L22.0116 6.54575C21.9817 6.53368 21.9512 6.52344 21.92 6.51508L16.6184 5.11424C19.4157 4.69138 22.2759 5.12295 24.8217 6.35199C27.3675 7.58103 29.479 9.54975 30.8776 11.9983L28.5929 10.7839C28.4957 10.7322 28.3879 10.7032 28.2777 10.699C28.1675 10.6949 28.0578 10.7157 27.9568 10.7599L25.0323 12.0393C24.912 12.0921 24.8082 12.1763 24.732 12.283C24.6558 12.3897 24.6101 12.515 24.5996 12.6455C24.5891 12.776 24.6142 12.9069 24.6724 13.0243C24.7305 13.1417 24.8195 13.2413 24.9299 13.3125L24.9286 13.3108ZM28.9576 7.29177L33.5203 2.74938L34.1826 3.40877C36.7822 5.99497 38.6809 9.19494 39.7013 12.7098C40.7218 16.2246 40.8307 19.9396 40.018 23.5077C39.2052 27.0758 37.4972 30.3806 35.0536 33.1133C32.6101 35.8461 29.5106 37.9176 26.0448 39.1345V37.1451C28.6012 36.1583 30.922 34.6498 32.858 32.7167C36.3494 29.2022 38.4028 24.5204 38.619 19.582C38.8351 14.6437 37.1985 9.80181 34.0274 5.99826C33.9624 5.92125 33.8821 5.85851 33.7916 5.81406C33.701 5.7696 33.6021 5.74439 33.5012 5.74002C33.4003 5.73565 33.2996 5.75223 33.2055 5.7887C33.1114 5.82517 33.0259 5.88072 32.9545 5.95184L30.284 8.61221L28.9576 7.29177ZM14.4703 5.63396V5.64184C14.4995 5.77133 14.5638 5.89038 14.6562 5.98603C14.7486 6.08169 14.8656 6.15028 14.9944 6.18435L21.5 7.90598L24.6814 9.21855L23.497 9.75733L19.0842 9.27284L17.777 7.97146C17.6767 7.87143 17.5492 7.80279 17.4102 7.774C17.2712 7.74521 17.1268 7.75752 16.9947 7.80941L14.5386 8.7726C14.4457 8.80914 14.3614 8.8643 14.2909 8.93465L11.0907 12.1201C10.9541 12.2561 10.8773 12.4405 10.8772 12.6328V16.8378C10.8773 17.0301 10.9541 17.2146 11.0907 17.3505L13.2489 19.4986C13.3164 19.566 13.3967 19.6195 13.4851 19.656C13.5734 19.6925 13.6682 19.7113 13.7638 19.7112H16.2129L19.023 22.5092V26.3221C19.0229 26.4173 19.0418 26.5116 19.0783 26.5996C19.1149 26.6875 19.1685 26.7675 19.2361 26.8348L21.6357 29.2241C21.7033 29.2915 21.7836 29.345 21.872 29.3815C21.9604 29.418 22.0552 29.4367 22.1509 29.4367C22.2466 29.4367 22.3413 29.418 22.4297 29.3815C22.5181 29.345 22.5984 29.2915 22.666 29.2241L25.7359 26.1679C25.8041 26.1003 25.8582 26.0199 25.895 25.9313C25.9318 25.8428 25.9506 25.7478 25.9503 25.652V24.1757L27.1505 22.9804C27.2871 22.8445 27.3639 22.66 27.364 22.4677V19.9624L29.3877 17.9477C29.4707 17.8653 29.5324 17.764 29.5677 17.6527C29.6029 17.5413 29.6105 17.4232 29.59 17.3082L29.0971 14.5447C29.0798 14.4465 29.0423 14.3531 28.987 14.27C28.9317 14.187 28.8598 14.1163 28.7757 14.0622L26.857 12.8276L28.2191 12.2316L30.2149 13.2926L31.9816 14.5177C32.9645 17.5674 32.8493 20.8627 31.6559 23.8369C30.4624 26.8111 28.2652 29.2784 25.4422 30.8144C22.6193 32.3504 19.3469 32.8591 16.1879 32.2531C13.029 31.6471 10.1808 29.9642 8.13333 27.4938L9.1974 26.1468L12.4791 25.7647C12.6554 25.7442 12.8181 25.6603 12.9367 25.5288C13.0553 25.3974 13.1216 25.2273 13.1231 25.0506L13.1506 21.9008C13.1518 21.7368 13.0974 21.5772 12.9962 21.4478L11.2893 19.2752C11.21 19.1735 11.1047 19.0949 10.9845 19.0474C10.8643 18.9998 10.7335 18.9852 10.6058 19.005L8.14956 19.3755L6.29952 17.9025C6.21482 17.835 6.11599 17.7872 6.01031 17.7627C5.90463 17.7382 5.79477 17.7375 5.6888 17.7608L5.09182 17.8905L4.99024 17.8246C5.17394 15.085 6.17399 12.4622 7.86258 10.2913C9.55116 8.12036 11.8516 6.50001 14.4699 5.63728L14.4703 5.63396ZM3.42078 34.0355L2.75844 33.3761L7.32112 28.8333L8.64621 30.1521L5.97397 32.8124C5.90256 32.8835 5.84678 32.9686 5.81015 33.0622C5.77352 33.1559 5.75685 33.2561 5.76119 33.3566C5.76554 33.457 5.7908 33.5554 5.83539 33.6456C5.87997 33.7358 5.9429 33.8158 6.02018 33.8805C9.1102 36.4756 12.9285 38.0597 16.9552 38.417V40.2895C11.8428 39.864 7.04732 37.6481 3.42078 34.0355ZM18.4123 37.1256C18.4126 36.8784 18.5114 36.6414 18.687 36.4666C18.8626 36.2918 19.1006 36.1934 19.3489 36.1931H23.651C23.8981 36.1974 24.1339 36.297 24.3086 36.4709C24.4834 36.6449 24.5834 36.8796 24.5877 37.1256V43.9504H18.4123V37.1256ZM13.6319 45.401H29.3681V48.2458H13.6319V45.401ZM35.616 52.5498H7.38357V50.6293C7.3839 50.382 7.48269 50.1451 7.65828 49.9702C7.83387 49.7954 8.07193 49.6971 8.32025 49.6968H34.6793C34.9276 49.6971 35.1657 49.7954 35.3413 49.9702C35.5168 50.1451 35.6156 50.382 35.616 50.6293V52.5498Z" fill="url(#paint0_linear)"/>
<path d="M21.5 38.2069C21.4043 38.2069 21.3095 38.2256 21.2211 38.262C21.1327 38.2985 21.0524 38.3519 20.9847 38.4192C20.917 38.4866 20.8634 38.5666 20.8268 38.6546C20.7902 38.7426 20.7714 38.8369 20.7714 38.9322V41.2117C20.7714 41.4041 20.8482 41.5885 20.9848 41.7246C21.1215 41.8606 21.3068 41.937 21.5 41.937C21.6932 41.937 21.8785 41.8606 22.0151 41.7246C22.1518 41.5885 22.2285 41.4041 22.2285 41.2117V38.9322C22.2286 38.8369 22.2098 38.7426 22.1732 38.6546C22.1366 38.5666 22.0829 38.4866 22.0152 38.4192C21.9476 38.3519 21.8673 38.2985 21.7788 38.262C21.6904 38.2256 21.5957 38.2069 21.5 38.2069Z" fill="url(#paint1_linear)"/>
<path d="M34.6793 48.2458H30.8252V44.6753C30.8252 44.4829 30.7484 44.2984 30.6118 44.1624C30.4752 44.0264 30.2898 43.95 30.0966 43.95H26.0448V40.6584C29.8087 39.4258 33.1929 37.2542 35.8751 34.3506C38.5572 31.447 40.4479 27.908 41.367 24.0709C42.2861 20.2337 42.2031 16.2262 41.1258 12.4301C40.0484 8.63395 38.0127 5.17566 35.2126 2.38466L34.0353 1.2126C33.9677 1.1452 33.8874 1.09174 33.799 1.05526C33.7107 1.01878 33.616 1 33.5203 1C33.4246 1 33.3299 1.01878 33.2416 1.05526C33.1532 1.09174 33.0729 1.1452 33.0053 1.2126L27.7941 6.40069C24.8475 4.26955 21.2339 3.25505 17.6031 3.53966C13.9723 3.82428 10.5626 5.38933 7.98744 7.95331C5.41225 10.5173 3.84054 13.9119 3.55501 17.5266C3.26948 21.1413 4.28887 24.7388 6.42982 27.672L1.21354 32.8634C1.14585 32.9307 1.09214 33.0106 1.0555 33.0986C1.01886 33.1865 1 33.2808 1 33.3761C1 33.4713 1.01886 33.5656 1.0555 33.6536C1.09214 33.7416 1.14585 33.8215 1.21354 33.8888L2.39168 35.06C6.29137 38.9433 11.4562 41.3119 16.9552 41.7389V43.9504H12.9021C12.7089 43.9504 12.5236 44.0268 12.3869 44.1628C12.2503 44.2988 12.1735 44.4833 12.1735 44.6757V48.2458H8.32025C7.68563 48.2465 7.07722 48.4979 6.62847 48.9446C6.17972 49.3914 5.92728 49.9971 5.92651 50.6289V53.2747C5.92651 53.4671 6.00326 53.6516 6.13989 53.7876C6.27652 53.9236 6.46182 54 6.65504 54H36.3445C36.5377 54 36.723 53.9236 36.8596 53.7876C36.9963 53.6516 37.073 53.4671 37.073 53.2747V50.6289C37.0723 49.9971 36.8198 49.3914 36.3711 48.9446C35.9223 48.4979 35.3139 48.2465 34.6793 48.2458ZM16.9623 36.9594C13.5469 36.6333 10.2934 35.3534 7.57673 33.2671L9.81602 31.0398C12.0973 32.693 14.7936 33.6854 17.6064 33.9071C20.4192 34.1289 23.2388 33.5713 25.7529 32.2962C28.2671 31.021 30.3777 29.078 31.8512 26.6824C33.3246 24.2867 34.1033 21.5318 34.101 18.7227C34.0947 15.5073 33.0723 12.3754 31.1786 9.7706L33.4104 7.54831C36.1097 11.088 37.4358 15.4783 37.1452 19.9131C36.8546 24.3479 34.9668 28.5295 31.8284 31.6901C30.0573 33.4562 27.9387 34.8389 25.6056 35.7517C25.3851 35.4396 25.0925 35.1847 24.7524 35.0087C24.4123 34.8327 24.0347 34.7407 23.6514 34.7405H19.3489C18.7429 34.7411 18.1597 34.9704 17.7168 35.3822C17.2739 35.794 17.0043 36.3576 16.9623 36.9594ZM6.64838 25.3133C5.64751 23.4892 5.07545 21.4628 4.97526 19.3867C5.01924 19.3854 5.06301 19.38 5.10598 19.3705L5.66174 19.2495L7.48931 20.7046C7.56761 20.7675 7.65823 20.8134 7.75536 20.8393C7.8525 20.8653 7.95401 20.8708 8.0534 20.8555L10.403 20.5007L11.6902 22.1395L11.6707 24.3949L8.72614 24.7377C8.63078 24.7488 8.53855 24.7785 8.45475 24.8251C8.37096 24.8718 8.29724 24.9345 8.23782 25.0096L7.23536 26.279C7.02846 25.9678 6.83113 25.6453 6.64963 25.315L6.64838 25.3133ZM24.9286 13.3108L27.7179 15.1054L28.0884 17.1876L26.1209 19.1492C25.9843 19.2852 25.9075 19.4696 25.9074 19.6619V22.1672L24.7055 23.3625C24.5689 23.4985 24.492 23.6829 24.4919 23.8752V25.3527L22.1519 27.6828L20.4813 26.0192V22.2087C20.4813 22.0162 20.4044 21.8317 20.2677 21.6956L17.031 18.4732C16.8943 18.3372 16.7089 18.2607 16.5156 18.2606H14.064L12.3326 16.5369V12.9349L15.2138 10.0686L17.0843 9.33501L18.2345 10.4806C18.3519 10.5967 18.5054 10.6697 18.67 10.6878L23.5382 11.222C23.6691 11.2363 23.8015 11.215 23.9212 11.1603L26.807 9.84396C26.936 9.78522 27.0449 9.69028 27.1205 9.5708C27.196 9.45131 27.2349 9.31247 27.2323 9.1713C27.2298 9.03014 27.1859 8.89279 27.106 8.7761C27.0262 8.65941 26.9139 8.56846 26.7829 8.5144L22.0116 6.54575C21.9817 6.53368 21.9512 6.52344 21.92 6.51508L16.6184 5.11424C19.4157 4.69138 22.2759 5.12295 24.8217 6.35199C27.3675 7.58103 29.479 9.54975 30.8776 11.9983L28.5929 10.7839C28.4957 10.7322 28.3879 10.7032 28.2777 10.699C28.1675 10.6949 28.0578 10.7157 27.9568 10.7599L25.0323 12.0393C24.912 12.0921 24.8082 12.1763 24.732 12.283C24.6558 12.3897 24.6101 12.515 24.5996 12.6455C24.5891 12.776 24.6142 12.9069 24.6724 13.0243C24.7305 13.1417 24.8195 13.2413 24.9299 13.3125L24.9286 13.3108ZM28.9576 7.29177L33.5203 2.74938L34.1826 3.40877C36.7822 5.99497 38.6809 9.19494 39.7013 12.7098C40.7218 16.2246 40.8307 19.9396 40.018 23.5077C39.2052 27.0758 37.4972 30.3806 35.0536 33.1133C32.6101 35.8461 29.5106 37.9176 26.0448 39.1345V37.1451C28.6012 36.1583 30.922 34.6498 32.858 32.7167C36.3494 29.2022 38.4028 24.5204 38.619 19.582C38.8351 14.6437 37.1985 9.80181 34.0274 5.99826C33.9624 5.92125 33.8821 5.85851 33.7916 5.81406C33.701 5.7696 33.6021 5.74439 33.5012 5.74002C33.4003 5.73565 33.2996 5.75223 33.2055 5.7887C33.1114 5.82517 33.0259 5.88072 32.9545 5.95184L30.284 8.61221L28.9576 7.29177ZM14.4703 5.63396V5.64184C14.4995 5.77133 14.5638 5.89038 14.6562 5.98603C14.7486 6.08169 14.8656 6.15028 14.9944 6.18435L21.5 7.90598L24.6814 9.21855L23.497 9.75733L19.0842 9.27284L17.777 7.97146C17.6767 7.87143 17.5492 7.80279 17.4102 7.774C17.2712 7.74521 17.1268 7.75752 16.9947 7.80941L14.5386 8.7726C14.4457 8.80914 14.3614 8.8643 14.2909 8.93465L11.0907 12.1201C10.9541 12.2561 10.8773 12.4405 10.8772 12.6328V16.8378C10.8773 17.0301 10.9541 17.2146 11.0907 17.3505L13.2489 19.4986C13.3164 19.566 13.3967 19.6195 13.4851 19.656C13.5734 19.6925 13.6682 19.7113 13.7638 19.7112H16.2129L19.023 22.5092V26.3221C19.0229 26.4173 19.0418 26.5116 19.0783 26.5996C19.1149 26.6875 19.1685 26.7675 19.2361 26.8348L21.6357 29.2241C21.7033 29.2915 21.7836 29.345 21.872 29.3815C21.9604 29.418 22.0552 29.4367 22.1509 29.4367C22.2466 29.4367 22.3413 29.418 22.4297 29.3815C22.5181 29.345 22.5984 29.2915 22.666 29.2241L25.7359 26.1679C25.8041 26.1003 25.8582 26.0199 25.895 25.9313C25.9318 25.8428 25.9506 25.7478 25.9503 25.652V24.1757L27.1505 22.9804C27.2871 22.8445 27.3639 22.66 27.364 22.4677V19.9624L29.3877 17.9477C29.4707 17.8653 29.5324 17.764 29.5677 17.6527C29.6029 17.5413 29.6105 17.4232 29.59 17.3082L29.0971 14.5447C29.0798 14.4465 29.0423 14.3531 28.987 14.27C28.9317 14.187 28.8598 14.1163 28.7757 14.0622L26.857 12.8276L28.2191 12.2316L30.2149 13.2926L31.9816 14.5177C32.9645 17.5674 32.8493 20.8627 31.6559 23.8369C30.4624 26.8111 28.2652 29.2784 25.4422 30.8144C22.6193 32.3504 19.3469 32.8591 16.1879 32.2531C13.029 31.6471 10.1808 29.9642 8.13333 27.4938L9.1974 26.1468L12.4791 25.7647C12.6554 25.7442 12.8181 25.6603 12.9367 25.5288C13.0553 25.3974 13.1216 25.2273 13.1231 25.0506L13.1506 21.9008C13.1518 21.7368 13.0974 21.5772 12.9962 21.4478L11.2893 19.2752C11.21 19.1735 11.1047 19.0949 10.9845 19.0474C10.8643 18.9998 10.7335 18.9852 10.6058 19.005L8.14956 19.3755L6.29952 17.9025C6.21482 17.835 6.11599 17.7872 6.01031 17.7627C5.90463 17.7382 5.79477 17.7375 5.6888 17.7608L5.09182 17.8905L4.99024 17.8246C5.17394 15.085 6.17399 12.4622 7.86258 10.2913C9.55116 8.12036 11.8516 6.50001 14.4699 5.63728L14.4703 5.63396ZM3.42078 34.0355L2.75844 33.3761L7.32112 28.8333L8.64621 30.1521L5.97397 32.8124C5.90256 32.8835 5.84678 32.9686 5.81015 33.0622C5.77352 33.1559 5.75685 33.2561 5.76119 33.3566C5.76554 33.457 5.7908 33.5554 5.83539 33.6456C5.87997 33.7358 5.9429 33.8158 6.02018 33.8805C9.1102 36.4756 12.9285 38.0597 16.9552 38.417V40.2895C11.8428 39.864 7.04732 37.6481 3.42078 34.0355ZM18.4123 37.1256C18.4126 36.8784 18.5114 36.6414 18.687 36.4666C18.8626 36.2918 19.1006 36.1934 19.3489 36.1931H23.651C23.8981 36.1974 24.1339 36.297 24.3086 36.4709C24.4834 36.6449 24.5834 36.8796 24.5877 37.1256V43.9504H18.4123V37.1256ZM13.6319 45.401H29.3681V48.2458H13.6319V45.401ZM35.616 52.5498H7.38357V50.6293C7.3839 50.382 7.48269 50.1451 7.65828 49.9702C7.83387 49.7954 8.07193 49.6971 8.32025 49.6968H34.6793C34.9276 49.6971 35.1657 49.7954 35.3413 49.9702C35.5168 50.1451 35.6156 50.382 35.616 50.6293V52.5498Z" stroke="url(#paint2_linear)" stroke-width="0.4" mask="url(#path-1-outside-1)"/>
<path d="M21.5 38.2069C21.4043 38.2069 21.3095 38.2256 21.2211 38.262C21.1327 38.2985 21.0524 38.3519 20.9847 38.4192C20.917 38.4866 20.8634 38.5666 20.8268 38.6546C20.7902 38.7426 20.7714 38.8369 20.7714 38.9322V41.2117C20.7714 41.4041 20.8482 41.5885 20.9848 41.7246C21.1215 41.8606 21.3068 41.937 21.5 41.937C21.6932 41.937 21.8785 41.8606 22.0151 41.7246C22.1518 41.5885 22.2285 41.4041 22.2285 41.2117V38.9322C22.2286 38.8369 22.2098 38.7426 22.1732 38.6546C22.1366 38.5666 22.0829 38.4866 22.0152 38.4192C21.9476 38.3519 21.8673 38.2985 21.7788 38.262C21.6904 38.2256 21.5957 38.2069 21.5 38.2069Z" stroke="url(#paint3_linear)" stroke-width="0.4" mask="url(#path-1-outside-1)"/>
<defs>
<linearGradient id="paint0_linear" x1="35.483" y1="0.999978" x2="-0.133639" y2="1.93692" gradientUnits="userSpaceOnUse">
<stop stop-color="#FFF9C6"/>
<stop offset="1" stop-color="#FFD8AB"/>
</linearGradient>
<linearGradient id="paint1_linear" x1="35.483" y1="0.999978" x2="-0.133639" y2="1.93692" gradientUnits="userSpaceOnUse">
<stop stop-color="#FFF9C6"/>
<stop offset="1" stop-color="#FFD8AB"/>
</linearGradient>
<linearGradient id="paint2_linear" x1="35.483" y1="0.999978" x2="-0.133639" y2="1.93692" gradientUnits="userSpaceOnUse">
<stop stop-color="#FFF9C6"/>
<stop offset="1" stop-color="#FFD8AB"/>
</linearGradient>
<linearGradient id="paint3_linear" x1="35.483" y1="0.999978" x2="-0.133639" y2="1.93692" gradientUnits="userSpaceOnUse">
<stop stop-color="#FFF9C6"/>
<stop offset="1" stop-color="#FFD8AB"/>
</linearGradient>
</defs>
</svg>
