<svg width="45" height="46" viewBox="0 0 45 46" fill="none" xmlns="http://www.w3.org/2000/svg">
<path d="M44.0996 7.78155H42.1538C41.7601 6.36642 40.4605 5.3236 38.9201 5.31722V3.22539C38.9201 1.44693 37.4703 0 35.688 0H6.58796C4.80569 0 3.35575 1.44684 3.35575 3.22539V5.31722C1.50406 5.32486 0 6.83037 0 8.67998C0 10.5296 1.50406 12.0351 3.35575 12.0427V13.4247C3.35575 15.2032 4.80569 16.6501 6.58787 16.6501H13.1812C13.1883 16.6501 13.1952 16.65 13.2021 16.6498C13.7274 17.0683 14.3928 17.3187 15.1157 17.3187C15.6104 17.3187 16.0782 17.2014 16.4926 16.9932C16.8451 18.2985 18.0417 19.262 19.4595 19.262C20.999 19.262 22.2776 18.1261 22.4981 16.6501H25.3626C25.8598 16.6501 26.263 16.2479 26.263 15.7517C26.263 15.2555 25.8598 14.8532 25.3626 14.8532H22.5318V1.79688H35.6881C36.4774 1.79688 37.1195 2.43773 37.1195 3.22539V13.4247C37.1195 14.2124 36.4773 14.8532 35.6881 14.8532H33.2277C32.7306 14.8532 32.3274 15.2555 32.3274 15.7517C32.3274 16.2479 32.7306 16.6501 33.2277 16.6501H35.6881C37.4703 16.6501 38.9202 15.2033 38.9202 13.4247V12.0427C40.4605 12.0364 41.7602 10.9936 42.1539 9.57842H43.1994V17.2535C43.1994 18.5907 42.1092 19.6787 40.7692 19.6787H21.0673C20.5701 19.6787 20.1669 20.081 20.1669 20.5772V25.1441H18.9928C18.598 25.1441 18.2493 25.4007 18.1326 25.7771L16.6638 30.5167C16.6444 30.5752 16.6308 30.6364 16.6239 30.6995C16.6238 30.7004 16.6236 30.7014 16.6235 30.7023C16.6231 30.7055 16.6228 30.7087 16.6225 30.7119C16.622 30.7174 16.6215 30.723 16.6211 30.7284C16.621 30.7299 16.6209 30.7313 16.6208 30.7327C16.6204 30.7392 16.6199 30.7459 16.6195 30.7524V30.7528C16.6186 30.7707 16.6182 30.7885 16.6184 30.8063V41.5604C16.6184 44.0083 18.6141 46 21.0673 46C23.5204 46 25.5161 44.0083 25.5161 41.5604V30.8063C25.5163 30.7886 25.5159 30.7707 25.515 30.7528C25.515 30.7527 25.515 30.7526 25.515 30.7525C25.5146 30.7458 25.5141 30.7391 25.5137 30.7325C25.5136 30.7311 25.5135 30.7298 25.5134 30.7284C25.513 30.7229 25.5125 30.7174 25.512 30.7118C25.5117 30.7086 25.5114 30.7054 25.511 30.7022C25.5109 30.7012 25.5107 30.7003 25.5106 30.6994C25.5037 30.6363 25.4901 30.5751 25.4707 30.5166L24.0019 25.777C23.8852 25.4006 23.5365 25.144 23.1417 25.144H21.9676V21.4755H40.7691C43.102 21.4755 45 19.5815 45 17.2534V8.67998C45 8.18378 44.5969 7.78155 44.0996 7.78155ZM1.80073 8.67998C1.80073 7.82117 2.49698 7.12164 3.35584 7.1141V10.2459C2.49698 10.2382 1.80073 9.53871 1.80073 8.67998ZM5.15647 13.4247V13.1192C5.54417 13.2957 5.97472 13.3942 6.42797 13.3942C7.59421 13.3942 8.61072 12.7424 9.13095 11.7847C9.60589 12.0853 10.1688 12.2595 10.7718 12.2595C11.225 12.2595 11.6556 12.1611 12.0434 11.9844V14.2529C12.0434 14.4583 12.0638 14.659 12.1025 14.8531H6.58796C5.79861 14.8532 5.15647 14.2124 5.15647 13.4247ZM20.731 16.1961C20.731 16.8958 20.1605 17.4651 19.4594 17.4651C18.7583 17.4651 18.1879 16.8958 18.1879 16.1961V9.9917C18.1879 9.4955 17.7847 9.09327 17.2875 9.09327C16.7903 9.09327 16.3872 9.4955 16.3872 9.9917V14.253C16.3872 14.9527 15.8167 15.5219 15.1156 15.5219C14.4145 15.5219 13.8441 14.9527 13.8441 14.253V9.19371C13.8441 8.6975 13.4409 8.29527 12.9437 8.29527C12.4464 8.29527 12.0434 8.6975 12.0434 9.19371C12.0434 9.89341 11.4729 10.4627 10.7718 10.4627C10.0707 10.4627 9.50028 9.89341 9.50028 9.19371C9.50028 8.6975 9.0971 8.29527 8.59991 8.29527C8.10273 8.29527 7.69955 8.6975 7.69955 9.19371V10.3283C7.69955 11.0281 7.12908 11.5973 6.42797 11.5973C5.72685 11.5973 5.15647 11.0281 5.15647 10.3283V3.22539C5.15647 2.43773 5.79861 1.79688 6.58787 1.79688H20.731V16.1961ZM38.9202 10.2458V7.1141C39.779 7.12164 40.4753 7.82126 40.4753 8.67998C40.4753 9.53871 39.779 10.2382 38.9202 10.2458ZM23.7154 41.5604C23.7154 43.0176 22.5275 44.2031 21.0673 44.2031C19.607 44.2031 18.4191 43.0176 18.4191 41.5604V31.6974H23.7154V41.5604ZM23.395 29.9005H18.7396L19.6569 26.9409H22.4778L23.395 29.9005Z" fill="url(#paint0_linear)"/>
<path d="M29.3626 16.6498C28.6559 16.662 28.2138 15.8326 28.6135 15.2528C28.9952 14.6613 29.9366 14.7517 30.1937 15.4082C30.4496 15.9722 29.9827 16.6692 29.3626 16.6498Z" fill="url(#paint1_linear)"/>
<path d="M21.0673 42.2583C20.5701 42.2583 20.1669 41.856 20.1669 41.3598V39.6557C20.1669 39.1595 20.5701 38.7572 21.0673 38.7572C21.5645 38.7572 21.9676 39.1595 21.9676 39.6557V41.3598C21.9676 41.856 21.5644 42.2583 21.0673 42.2583Z" fill="url(#paint2_linear)"/>
<defs>
<linearGradient id="paint0_linear" x1="37.8472" y1="-1.94962e-05" x2="-1.22805" y2="1.29988" gradientUnits="userSpaceOnUse">
<stop stop-color="#FFF9C6"/>
<stop offset="1" stop-color="#FFD8AB"/>
</linearGradient>
<linearGradient id="paint1_linear" x1="37.8472" y1="-1.94962e-05" x2="-1.22805" y2="1.29988" gradientUnits="userSpaceOnUse">
<stop stop-color="#FFF9C6"/>
<stop offset="1" stop-color="#FFD8AB"/>
</linearGradient>
<linearGradient id="paint2_linear" x1="37.8472" y1="-1.94962e-05" x2="-1.22805" y2="1.29988" gradientUnits="userSpaceOnUse">
<stop stop-color="#FFF9C6"/>
<stop offset="1" stop-color="#FFD8AB"/>
</linearGradient>
</defs>
</svg>
