<svg width="44" height="57" viewBox="0 0 44 57" fill="none" xmlns="http://www.w3.org/2000/svg">
<mask id="path-1-inside-1" fill="white">
<path d="M31.0901 44.5888C30.638 44.5125 30.2104 44.8207 30.1352 45.2756C30.0601 45.7305 30.3658 46.1605 30.818 46.2361C37.0416 47.2765 39.8763 49.1447 39.8763 50.4402C39.8763 52.482 33.0755 55.3301 22 55.3301C17.8848 55.3301 13.9988 54.9254 10.7619 54.16C10.3158 54.0546 9.86888 54.3329 9.76396 54.7817C9.65903 55.2306 9.93573 55.68 10.382 55.7856C13.7415 56.5802 17.759 57 22 57C27.0762 57 31.8596 56.3916 35.469 55.287C39.4383 54.0723 41.5364 52.3961 41.5364 50.4401C41.5364 47.8312 37.7289 45.6984 31.0901 44.5888Z"/>
<path d="M7.28036 53.0746C5.30377 52.259 4.12373 51.2741 4.12373 50.4401C4.12373 49.1446 6.95828 47.2765 13.1817 46.2361C13.6339 46.1605 13.9396 45.7305 13.8644 45.2756C13.7893 44.8207 13.3615 44.5135 12.9095 44.5888C9.92754 45.0873 7.4062 45.828 5.6182 46.7309C3.52485 47.7879 2.46357 49.0359 2.46357 50.44C2.46357 52.4665 4.74031 53.8313 6.65016 54.6194C6.75331 54.662 6.86 54.682 6.96493 54.682C7.29176 54.682 7.60154 54.4867 7.73325 54.1638C7.90723 53.7373 7.70447 53.2496 7.28036 53.0746Z"/>
<path d="M4.85619 17.7132C4.40695 17.6209 3.96845 17.9119 3.87636 18.3637C3.62701 19.5885 3.5005 20.8489 3.5005 22.1099C3.5005 32.3615 11.7993 40.7018 21.9999 40.7018C32.2005 40.7018 40.4993 32.3615 40.4993 22.1099C40.4993 11.8582 32.2006 3.51797 22 3.51797C14.6599 3.51797 8.00883 7.88281 5.05552 14.6379C4.87102 15.06 5.0615 15.5528 5.48118 15.7383C5.90065 15.9243 6.39051 15.7322 6.57523 15.3102C9.26347 9.16108 15.3181 5.18789 22 5.18789C31.2852 5.18789 38.8392 12.7791 38.8392 22.11C38.8392 31.4407 31.2852 39.032 22 39.032C12.7148 39.032 5.16077 31.4407 5.16077 22.11C5.16077 20.9613 5.27588 19.8136 5.50288 18.6988C5.59485 18.247 5.30532 17.8057 4.85619 17.7132Z"/>
<path d="M14.1746 42.7799L21.4133 50.0546C21.5753 50.2174 21.7876 50.2988 22 50.2988C22.2124 50.2988 22.4247 50.2174 22.5867 50.0546L29.8253 42.7799C34.4915 40.9944 38.4505 37.6285 40.9867 33.2853C41.2189 32.8878 41.0866 32.376 40.6914 32.1424C40.2961 31.9088 39.7874 32.0419 39.5552 32.4395C37.1812 36.5049 33.4599 39.6441 29.0769 41.2788C28.9649 41.3205 28.8633 41.3861 28.7789 41.4711L22 48.2836L15.221 41.4711C15.1366 41.3861 15.0349 41.3205 14.923 41.2788C11.0698 39.8417 7.77232 37.2919 5.38678 33.9057C2.94878 30.4446 1.66016 26.3657 1.66016 22.1099C1.66016 10.8392 10.7846 1.66992 22 1.66992C24.8458 1.66992 27.5983 2.24872 30.1809 3.39028C30.6006 3.57597 31.0904 3.38382 31.2748 2.96177C31.4593 2.53951 31.2685 2.04688 30.8488 1.86141C28.0544 0.626332 25.0772 0 22 0C9.86921 0 0 9.91856 0 22.11C0 26.7137 1.39431 31.1263 4.03231 34.8712C6.57623 38.4826 10.0805 41.2142 14.1746 42.7799Z"/>
<path d="M34.2849 3.76556C33.9046 3.50795 33.3887 3.60915 33.1326 3.99145C32.8765 4.37397 32.977 4.89276 33.3573 5.15037C38.9819 8.96203 42.3398 15.302 42.3398 22.1099C42.3398 24.5865 41.9042 27.0064 41.045 29.3027C40.8835 29.7342 41.1004 30.2158 41.5295 30.3782C41.6259 30.4146 41.7246 30.4319 41.8218 30.4319C42.1574 30.4319 42.4735 30.2255 42.5987 29.8908C43.5285 27.406 44 24.788 44 22.1098C44 14.7457 40.3681 7.88804 34.2849 3.76556Z"/>
<path d="M13.5112 30.8157H30.4888C30.9473 30.8157 31.3189 30.442 31.3189 29.9808V20.1829L32.2458 20.9123C32.3977 21.0318 32.5779 21.0897 32.7567 21.0897C33.0033 21.0897 33.2475 20.9797 33.4112 20.7692C33.6936 20.4059 33.63 19.8811 33.2688 19.5971L22.5114 11.1324C22.211 10.896 21.789 10.896 21.4886 11.1324L10.7312 19.5971C10.37 19.8812 10.3064 20.406 10.5888 20.7692C10.8712 21.1323 11.3929 21.1967 11.754 20.9123L12.681 20.1829V29.9808C12.6811 30.4419 13.0527 30.8157 13.5112 30.8157ZM14.3412 18.8766L22 12.85L29.6588 18.8766V29.1458H14.3412V18.8766Z"/>
<path d="M18.1263 21.2354C17.6679 21.2354 17.2962 21.6091 17.2962 22.0704V25.4497C17.2962 25.911 17.6679 26.2847 18.1263 26.2847C18.5847 26.2847 18.9564 25.911 18.9564 25.4497V22.0704C18.9564 21.6092 18.5847 21.2354 18.1263 21.2354Z"/>
<path d="M22 21.2354C21.5416 21.2354 21.1699 21.6091 21.1699 22.0704V25.4497C21.1699 25.911 21.5416 26.2847 22 26.2847C22.4584 26.2847 22.8301 25.911 22.8301 25.4497V22.0704C22.8301 21.6092 22.4584 21.2354 22 21.2354Z"/>
<path d="M25.8737 21.2354C25.4153 21.2354 25.0436 21.6091 25.0436 22.0704V25.4497C25.0436 25.911 25.4153 26.2847 25.8737 26.2847C26.3321 26.2847 26.7038 25.911 26.7038 25.4497V22.0704C26.7038 21.6092 26.3321 21.2354 25.8737 21.2354Z"/>
<path d="M22 16.2001C21.5416 16.2001 21.1699 16.5739 21.1699 17.0351V18.2622C21.1699 18.7234 21.5416 19.0971 22 19.0971C22.4584 19.0971 22.8301 18.7234 22.8301 18.2622V17.0351C22.8301 16.5739 22.4584 16.2001 22 16.2001Z"/>
</mask>
<path d="M31.0901 44.5888C30.638 44.5125 30.2104 44.8207 30.1352 45.2756C30.0601 45.7305 30.3658 46.1605 30.818 46.2361C37.0416 47.2765 39.8763 49.1447 39.8763 50.4402C39.8763 52.482 33.0755 55.3301 22 55.3301C17.8848 55.3301 13.9988 54.9254 10.7619 54.16C10.3158 54.0546 9.86888 54.3329 9.76396 54.7817C9.65903 55.2306 9.93573 55.68 10.382 55.7856C13.7415 56.5802 17.759 57 22 57C27.0762 57 31.8596 56.3916 35.469 55.287C39.4383 54.0723 41.5364 52.3961 41.5364 50.4401C41.5364 47.8312 37.7289 45.6984 31.0901 44.5888Z" fill="url(#paint0_linear)"/>
<path d="M7.28036 53.0746C5.30377 52.259 4.12373 51.2741 4.12373 50.4401C4.12373 49.1446 6.95828 47.2765 13.1817 46.2361C13.6339 46.1605 13.9396 45.7305 13.8644 45.2756C13.7893 44.8207 13.3615 44.5135 12.9095 44.5888C9.92754 45.0873 7.4062 45.828 5.6182 46.7309C3.52485 47.7879 2.46357 49.0359 2.46357 50.44C2.46357 52.4665 4.74031 53.8313 6.65016 54.6194C6.75331 54.662 6.86 54.682 6.96493 54.682C7.29176 54.682 7.60154 54.4867 7.73325 54.1638C7.90723 53.7373 7.70447 53.2496 7.28036 53.0746Z" fill="url(#paint1_linear)"/>
<path d="M4.85619 17.7132C4.40695 17.6209 3.96845 17.9119 3.87636 18.3637C3.62701 19.5885 3.5005 20.8489 3.5005 22.1099C3.5005 32.3615 11.7993 40.7018 21.9999 40.7018C32.2005 40.7018 40.4993 32.3615 40.4993 22.1099C40.4993 11.8582 32.2006 3.51797 22 3.51797C14.6599 3.51797 8.00883 7.88281 5.05552 14.6379C4.87102 15.06 5.0615 15.5528 5.48118 15.7383C5.90065 15.9243 6.39051 15.7322 6.57523 15.3102C9.26347 9.16108 15.3181 5.18789 22 5.18789C31.2852 5.18789 38.8392 12.7791 38.8392 22.11C38.8392 31.4407 31.2852 39.032 22 39.032C12.7148 39.032 5.16077 31.4407 5.16077 22.11C5.16077 20.9613 5.27588 19.8136 5.50288 18.6988C5.59485 18.247 5.30532 17.8057 4.85619 17.7132Z" fill="url(#paint2_linear)"/>
<path d="M14.1746 42.7799L21.4133 50.0546C21.5753 50.2174 21.7876 50.2988 22 50.2988C22.2124 50.2988 22.4247 50.2174 22.5867 50.0546L29.8253 42.7799C34.4915 40.9944 38.4505 37.6285 40.9867 33.2853C41.2189 32.8878 41.0866 32.376 40.6914 32.1424C40.2961 31.9088 39.7874 32.0419 39.5552 32.4395C37.1812 36.5049 33.4599 39.6441 29.0769 41.2788C28.9649 41.3205 28.8633 41.3861 28.7789 41.4711L22 48.2836L15.221 41.4711C15.1366 41.3861 15.0349 41.3205 14.923 41.2788C11.0698 39.8417 7.77232 37.2919 5.38678 33.9057C2.94878 30.4446 1.66016 26.3657 1.66016 22.1099C1.66016 10.8392 10.7846 1.66992 22 1.66992C24.8458 1.66992 27.5983 2.24872 30.1809 3.39028C30.6006 3.57597 31.0904 3.38382 31.2748 2.96177C31.4593 2.53951 31.2685 2.04688 30.8488 1.86141C28.0544 0.626332 25.0772 0 22 0C9.86921 0 0 9.91856 0 22.11C0 26.7137 1.39431 31.1263 4.03231 34.8712C6.57623 38.4826 10.0805 41.2142 14.1746 42.7799Z" fill="url(#paint3_linear)"/>
<path d="M34.2849 3.76556C33.9046 3.50795 33.3887 3.60915 33.1326 3.99145C32.8765 4.37397 32.977 4.89276 33.3573 5.15037C38.9819 8.96203 42.3398 15.302 42.3398 22.1099C42.3398 24.5865 41.9042 27.0064 41.045 29.3027C40.8835 29.7342 41.1004 30.2158 41.5295 30.3782C41.6259 30.4146 41.7246 30.4319 41.8218 30.4319C42.1574 30.4319 42.4735 30.2255 42.5987 29.8908C43.5285 27.406 44 24.788 44 22.1098C44 14.7457 40.3681 7.88804 34.2849 3.76556Z" fill="url(#paint4_linear)"/>
<path d="M13.5112 30.8157H30.4888C30.9473 30.8157 31.3189 30.442 31.3189 29.9808V20.1829L32.2458 20.9123C32.3977 21.0318 32.5779 21.0897 32.7567 21.0897C33.0033 21.0897 33.2475 20.9797 33.4112 20.7692C33.6936 20.4059 33.63 19.8811 33.2688 19.5971L22.5114 11.1324C22.211 10.896 21.789 10.896 21.4886 11.1324L10.7312 19.5971C10.37 19.8812 10.3064 20.406 10.5888 20.7692C10.8712 21.1323 11.3929 21.1967 11.754 20.9123L12.681 20.1829V29.9808C12.6811 30.4419 13.0527 30.8157 13.5112 30.8157ZM14.3412 18.8766L22 12.85L29.6588 18.8766V29.1458H14.3412V18.8766Z" fill="url(#paint5_linear)"/>
<path d="M18.1263 21.2354C17.6679 21.2354 17.2962 21.6091 17.2962 22.0704V25.4497C17.2962 25.911 17.6679 26.2847 18.1263 26.2847C18.5847 26.2847 18.9564 25.911 18.9564 25.4497V22.0704C18.9564 21.6092 18.5847 21.2354 18.1263 21.2354Z" fill="url(#paint6_linear)"/>
<path d="M22 21.2354C21.5416 21.2354 21.1699 21.6091 21.1699 22.0704V25.4497C21.1699 25.911 21.5416 26.2847 22 26.2847C22.4584 26.2847 22.8301 25.911 22.8301 25.4497V22.0704C22.8301 21.6092 22.4584 21.2354 22 21.2354Z" fill="url(#paint7_linear)"/>
<path d="M25.8737 21.2354C25.4153 21.2354 25.0436 21.6091 25.0436 22.0704V25.4497C25.0436 25.911 25.4153 26.2847 25.8737 26.2847C26.3321 26.2847 26.7038 25.911 26.7038 25.4497V22.0704C26.7038 21.6092 26.3321 21.2354 25.8737 21.2354Z" fill="url(#paint8_linear)"/>
<path d="M22 16.2001C21.5416 16.2001 21.1699 16.5739 21.1699 17.0351V18.2622C21.1699 18.7234 21.5416 19.0971 22 19.0971C22.4584 19.0971 22.8301 18.7234 22.8301 18.2622V17.0351C22.8301 16.5739 22.4584 16.2001 22 16.2001Z" fill="url(#paint9_linear)"/>
<path d="M31.0901 44.5888C30.638 44.5125 30.2104 44.8207 30.1352 45.2756C30.0601 45.7305 30.3658 46.1605 30.818 46.2361C37.0416 47.2765 39.8763 49.1447 39.8763 50.4402C39.8763 52.482 33.0755 55.3301 22 55.3301C17.8848 55.3301 13.9988 54.9254 10.7619 54.16C10.3158 54.0546 9.86888 54.3329 9.76396 54.7817C9.65903 55.2306 9.93573 55.68 10.382 55.7856C13.7415 56.5802 17.759 57 22 57C27.0762 57 31.8596 56.3916 35.469 55.287C39.4383 54.0723 41.5364 52.3961 41.5364 50.4401C41.5364 47.8312 37.7289 45.6984 31.0901 44.5888Z" stroke="url(#paint10_linear)" stroke-width="0.8" mask="url(#path-1-inside-1)"/>
<path d="M7.28036 53.0746C5.30377 52.259 4.12373 51.2741 4.12373 50.4401C4.12373 49.1446 6.95828 47.2765 13.1817 46.2361C13.6339 46.1605 13.9396 45.7305 13.8644 45.2756C13.7893 44.8207 13.3615 44.5135 12.9095 44.5888C9.92754 45.0873 7.4062 45.828 5.6182 46.7309C3.52485 47.7879 2.46357 49.0359 2.46357 50.44C2.46357 52.4665 4.74031 53.8313 6.65016 54.6194C6.75331 54.662 6.86 54.682 6.96493 54.682C7.29176 54.682 7.60154 54.4867 7.73325 54.1638C7.90723 53.7373 7.70447 53.2496 7.28036 53.0746Z" stroke="url(#paint11_linear)" stroke-width="0.8" mask="url(#path-1-inside-1)"/>
<path d="M4.85619 17.7132C4.40695 17.6209 3.96845 17.9119 3.87636 18.3637C3.62701 19.5885 3.5005 20.8489 3.5005 22.1099C3.5005 32.3615 11.7993 40.7018 21.9999 40.7018C32.2005 40.7018 40.4993 32.3615 40.4993 22.1099C40.4993 11.8582 32.2006 3.51797 22 3.51797C14.6599 3.51797 8.00883 7.88281 5.05552 14.6379C4.87102 15.06 5.0615 15.5528 5.48118 15.7383C5.90065 15.9243 6.39051 15.7322 6.57523 15.3102C9.26347 9.16108 15.3181 5.18789 22 5.18789C31.2852 5.18789 38.8392 12.7791 38.8392 22.11C38.8392 31.4407 31.2852 39.032 22 39.032C12.7148 39.032 5.16077 31.4407 5.16077 22.11C5.16077 20.9613 5.27588 19.8136 5.50288 18.6988C5.59485 18.247 5.30532 17.8057 4.85619 17.7132Z" stroke="url(#paint12_linear)" stroke-width="0.8" mask="url(#path-1-inside-1)"/>
<path d="M14.1746 42.7799L21.4133 50.0546C21.5753 50.2174 21.7876 50.2988 22 50.2988C22.2124 50.2988 22.4247 50.2174 22.5867 50.0546L29.8253 42.7799C34.4915 40.9944 38.4505 37.6285 40.9867 33.2853C41.2189 32.8878 41.0866 32.376 40.6914 32.1424C40.2961 31.9088 39.7874 32.0419 39.5552 32.4395C37.1812 36.5049 33.4599 39.6441 29.0769 41.2788C28.9649 41.3205 28.8633 41.3861 28.7789 41.4711L22 48.2836L15.221 41.4711C15.1366 41.3861 15.0349 41.3205 14.923 41.2788C11.0698 39.8417 7.77232 37.2919 5.38678 33.9057C2.94878 30.4446 1.66016 26.3657 1.66016 22.1099C1.66016 10.8392 10.7846 1.66992 22 1.66992C24.8458 1.66992 27.5983 2.24872 30.1809 3.39028C30.6006 3.57597 31.0904 3.38382 31.2748 2.96177C31.4593 2.53951 31.2685 2.04688 30.8488 1.86141C28.0544 0.626332 25.0772 0 22 0C9.86921 0 0 9.91856 0 22.11C0 26.7137 1.39431 31.1263 4.03231 34.8712C6.57623 38.4826 10.0805 41.2142 14.1746 42.7799Z" stroke="url(#paint13_linear)" stroke-width="0.8" mask="url(#path-1-inside-1)"/>
<path d="M34.2849 3.76556C33.9046 3.50795 33.3887 3.60915 33.1326 3.99145C32.8765 4.37397 32.977 4.89276 33.3573 5.15037C38.9819 8.96203 42.3398 15.302 42.3398 22.1099C42.3398 24.5865 41.9042 27.0064 41.045 29.3027C40.8835 29.7342 41.1004 30.2158 41.5295 30.3782C41.6259 30.4146 41.7246 30.4319 41.8218 30.4319C42.1574 30.4319 42.4735 30.2255 42.5987 29.8908C43.5285 27.406 44 24.788 44 22.1098C44 14.7457 40.3681 7.88804 34.2849 3.76556Z" stroke="url(#paint14_linear)" stroke-width="0.8" mask="url(#path-1-inside-1)"/>
<path d="M13.5112 30.8157H30.4888C30.9473 30.8157 31.3189 30.442 31.3189 29.9808V20.1829L32.2458 20.9123C32.3977 21.0318 32.5779 21.0897 32.7567 21.0897C33.0033 21.0897 33.2475 20.9797 33.4112 20.7692C33.6936 20.4059 33.63 19.8811 33.2688 19.5971L22.5114 11.1324C22.211 10.896 21.789 10.896 21.4886 11.1324L10.7312 19.5971C10.37 19.8812 10.3064 20.406 10.5888 20.7692C10.8712 21.1323 11.3929 21.1967 11.754 20.9123L12.681 20.1829V29.9808C12.6811 30.4419 13.0527 30.8157 13.5112 30.8157ZM14.3412 18.8766L22 12.85L29.6588 18.8766V29.1458H14.3412V18.8766Z" stroke="url(#paint15_linear)" stroke-width="0.8" mask="url(#path-1-inside-1)"/>
<path d="M18.1263 21.2354C17.6679 21.2354 17.2962 21.6091 17.2962 22.0704V25.4497C17.2962 25.911 17.6679 26.2847 18.1263 26.2847C18.5847 26.2847 18.9564 25.911 18.9564 25.4497V22.0704C18.9564 21.6092 18.5847 21.2354 18.1263 21.2354Z" stroke="url(#paint16_linear)" stroke-width="0.8" mask="url(#path-1-inside-1)"/>
<path d="M22 21.2354C21.5416 21.2354 21.1699 21.6091 21.1699 22.0704V25.4497C21.1699 25.911 21.5416 26.2847 22 26.2847C22.4584 26.2847 22.8301 25.911 22.8301 25.4497V22.0704C22.8301 21.6092 22.4584 21.2354 22 21.2354Z" stroke="url(#paint17_linear)" stroke-width="0.8" mask="url(#path-1-inside-1)"/>
<path d="M25.8737 21.2354C25.4153 21.2354 25.0436 21.6091 25.0436 22.0704V25.4497C25.0436 25.911 25.4153 26.2847 25.8737 26.2847C26.3321 26.2847 26.7038 25.911 26.7038 25.4497V22.0704C26.7038 21.6092 26.3321 21.2354 25.8737 21.2354Z" stroke="url(#paint18_linear)" stroke-width="0.8" mask="url(#path-1-inside-1)"/>
<path d="M22 16.2001C21.5416 16.2001 21.1699 16.5739 21.1699 17.0351V18.2622C21.1699 18.7234 21.5416 19.0971 22 19.0971C22.4584 19.0971 22.8301 18.7234 22.8301 18.2622V17.0351C22.8301 16.5739 22.4584 16.2001 22 16.2001Z" stroke="url(#paint19_linear)" stroke-width="0.8" mask="url(#path-1-inside-1)"/>
<defs>
<linearGradient id="paint0_linear" x1="37.0062" y1="-2.41583e-05" x2="-1.2167" y2="1.00333" gradientUnits="userSpaceOnUse">
<stop stop-color="#FFF9C6"/>
<stop offset="1" stop-color="#FFD8AB"/>
</linearGradient>
<linearGradient id="paint1_linear" x1="37.0062" y1="-2.41583e-05" x2="-1.2167" y2="1.00333" gradientUnits="userSpaceOnUse">
<stop stop-color="#FFF9C6"/>
<stop offset="1" stop-color="#FFD8AB"/>
</linearGradient>
<linearGradient id="paint2_linear" x1="37.0062" y1="-2.41583e-05" x2="-1.2167" y2="1.00333" gradientUnits="userSpaceOnUse">
<stop stop-color="#FFF9C6"/>
<stop offset="1" stop-color="#FFD8AB"/>
</linearGradient>
<linearGradient id="paint3_linear" x1="37.0062" y1="-2.41583e-05" x2="-1.2167" y2="1.00333" gradientUnits="userSpaceOnUse">
<stop stop-color="#FFF9C6"/>
<stop offset="1" stop-color="#FFD8AB"/>
</linearGradient>
<linearGradient id="paint4_linear" x1="37.0062" y1="-2.41583e-05" x2="-1.2167" y2="1.00333" gradientUnits="userSpaceOnUse">
<stop stop-color="#FFF9C6"/>
<stop offset="1" stop-color="#FFD8AB"/>
</linearGradient>
<linearGradient id="paint5_linear" x1="37.0062" y1="-2.41583e-05" x2="-1.2167" y2="1.00333" gradientUnits="userSpaceOnUse">
<stop stop-color="#FFF9C6"/>
<stop offset="1" stop-color="#FFD8AB"/>
</linearGradient>
<linearGradient id="paint6_linear" x1="37.0062" y1="-2.41583e-05" x2="-1.2167" y2="1.00333" gradientUnits="userSpaceOnUse">
<stop stop-color="#FFF9C6"/>
<stop offset="1" stop-color="#FFD8AB"/>
</linearGradient>
<linearGradient id="paint7_linear" x1="37.0062" y1="-2.41583e-05" x2="-1.2167" y2="1.00333" gradientUnits="userSpaceOnUse">
<stop stop-color="#FFF9C6"/>
<stop offset="1" stop-color="#FFD8AB"/>
</linearGradient>
<linearGradient id="paint8_linear" x1="37.0062" y1="-2.41583e-05" x2="-1.2167" y2="1.00333" gradientUnits="userSpaceOnUse">
<stop stop-color="#FFF9C6"/>
<stop offset="1" stop-color="#FFD8AB"/>
</linearGradient>
<linearGradient id="paint9_linear" x1="37.0062" y1="-2.41583e-05" x2="-1.2167" y2="1.00333" gradientUnits="userSpaceOnUse">
<stop stop-color="#FFF9C6"/>
<stop offset="1" stop-color="#FFD8AB"/>
</linearGradient>
<linearGradient id="paint10_linear" x1="37.0062" y1="-2.41583e-05" x2="-1.2167" y2="1.00333" gradientUnits="userSpaceOnUse">
<stop stop-color="#FFF9C6"/>
<stop offset="1" stop-color="#FFD8AB"/>
</linearGradient>
<linearGradient id="paint11_linear" x1="37.0062" y1="-2.41583e-05" x2="-1.2167" y2="1.00333" gradientUnits="userSpaceOnUse">
<stop stop-color="#FFF9C6"/>
<stop offset="1" stop-color="#FFD8AB"/>
</linearGradient>
<linearGradient id="paint12_linear" x1="37.0062" y1="-2.41583e-05" x2="-1.2167" y2="1.00333" gradientUnits="userSpaceOnUse">
<stop stop-color="#FFF9C6"/>
<stop offset="1" stop-color="#FFD8AB"/>
</linearGradient>
<linearGradient id="paint13_linear" x1="37.0062" y1="-2.41583e-05" x2="-1.2167" y2="1.00333" gradientUnits="userSpaceOnUse">
<stop stop-color="#FFF9C6"/>
<stop offset="1" stop-color="#FFD8AB"/>
</linearGradient>
<linearGradient id="paint14_linear" x1="37.0062" y1="-2.41583e-05" x2="-1.2167" y2="1.00333" gradientUnits="userSpaceOnUse">
<stop stop-color="#FFF9C6"/>
<stop offset="1" stop-color="#FFD8AB"/>
</linearGradient>
<linearGradient id="paint15_linear" x1="37.0062" y1="-2.41583e-05" x2="-1.2167" y2="1.00333" gradientUnits="userSpaceOnUse">
<stop stop-color="#FFF9C6"/>
<stop offset="1" stop-color="#FFD8AB"/>
</linearGradient>
<linearGradient id="paint16_linear" x1="37.0062" y1="-2.41583e-05" x2="-1.2167" y2="1.00333" gradientUnits="userSpaceOnUse">
<stop stop-color="#FFF9C6"/>
<stop offset="1" stop-color="#FFD8AB"/>
</linearGradient>
<linearGradient id="paint17_linear" x1="37.0062" y1="-2.41583e-05" x2="-1.2167" y2="1.00333" gradientUnits="userSpaceOnUse">
<stop stop-color="#FFF9C6"/>
<stop offset="1" stop-color="#FFD8AB"/>
</linearGradient>
<linearGradient id="paint18_linear" x1="37.0062" y1="-2.41583e-05" x2="-1.2167" y2="1.00333" gradientUnits="userSpaceOnUse">
<stop stop-color="#FFF9C6"/>
<stop offset="1" stop-color="#FFD8AB"/>
</linearGradient>
<linearGradient id="paint19_linear" x1="37.0062" y1="-2.41583e-05" x2="-1.2167" y2="1.00333" gradientUnits="userSpaceOnUse">
<stop stop-color="#FFF9C6"/>
<stop offset="1" stop-color="#FFD8AB"/>
</linearGradient>
</defs>
</svg>
