<svg width="45" height="46" viewBox="0 0 45 46" fill="none" xmlns="http://www.w3.org/2000/svg">
<path d="M44.0475 24.329L39.0974 19.0741C38.7542 18.7097 38.1976 18.7098 37.8545 19.0744C37.5113 19.439 37.5114 20.03 37.8547 20.3944L42.8039 25.6483C43.3895 26.272 43.3899 27.2851 42.8047 27.9065C42.2187 28.5288 41.2652 28.5288 40.6795 27.9066L27.1865 13.5734L29.3474 11.3585L32.2742 14.4649C32.4458 14.6471 32.6706 14.7381 32.8954 14.7381C33.1205 14.7381 33.3455 14.6468 33.5171 14.4645C33.8602 14.0998 33.86 13.5089 33.5166 13.1444L30.6083 10.0577C32.6753 7.76466 32.686 4.11596 30.5929 1.81315C29.5565 0.672898 28.1597 0.029406 26.6599 0.00112365C25.1642 -0.0279054 23.7437 0.563036 22.6721 1.66175L22.5001 1.83742L22.3294 1.66241C21.2555 0.562849 19.8387 -0.0293988 18.339 0.00112365C16.8391 0.029406 15.4428 0.673085 14.4079 1.81315C12.3142 4.11671 12.324 7.7655 14.3904 10.058L0.953564 24.3291C-0.317723 25.6793 -0.317723 27.8763 0.952773 29.2256C1.56526 29.8779 2.38322 30.2374 3.25603 30.2381H3.25832C3.93619 30.2381 4.58102 30.0207 5.12319 29.6185V43.3177C5.12319 44.7967 6.25623 46 7.6488 46H37.35C38.7426 46 39.8756 44.7966 39.8756 43.3177V29.6164C40.434 30.031 41.0878 30.2392 41.7421 30.2392C42.577 30.2392 43.412 29.9017 44.0476 29.2265C45.3173 27.8781 45.3177 25.6815 44.0475 24.329ZM15.6732 3.10928C16.3823 2.32802 17.3402 1.88708 18.3704 1.86766C18.3941 1.8672 18.4176 1.86701 18.4413 1.86701C19.4451 1.86701 20.3904 2.27005 21.1093 3.00623L21.8892 3.80533C22.2293 4.15386 22.7678 4.15433 23.1087 3.80635L23.892 3.00605C24.6268 2.2526 25.5987 1.84806 26.629 1.86776C27.6595 1.88717 28.6181 2.3283 29.3285 3.10984C30.8005 4.72931 30.7566 7.31952 29.231 8.88373L22.4994 15.7833L15.768 8.88382C14.2429 7.32008 14.2002 4.72987 15.6732 3.10928ZM3.25823 28.3714C3.25788 28.3714 3.25752 28.3714 3.25717 28.3714C2.85439 28.3711 2.47797 28.2063 2.19646 27.9066C1.61052 27.2842 1.61052 26.2716 2.19646 25.6493L15.6515 11.3588L17.8134 13.5748L5.40601 26.7547C5.38914 26.7713 5.37288 26.7885 5.35732 26.8064L4.32175 27.9064C4.03954 28.2063 3.66189 28.3714 3.25823 28.3714ZM17.1232 30.6839C15.7204 30.6839 14.5791 29.4705 14.5791 27.979C14.5791 26.4875 15.7204 25.2742 17.1232 25.2742C18.5275 25.2742 19.6699 26.4875 19.6699 27.979C19.6699 29.4705 18.5274 30.6839 17.1232 30.6839ZM14.4706 31.5742C15.2021 32.185 16.123 32.5507 17.1232 32.5507C18.1245 32.5507 19.0463 32.1847 19.7783 31.5734C20.3043 31.8595 20.7889 32.2244 21.1293 32.7684C19.9153 33.3315 19.0645 34.6184 19.0645 36.1129C19.0645 36.65 19.1751 37.1601 19.372 37.6199C18.4608 38.2408 17.607 39.2722 17.607 41.1588V44.1335H12.6283V34.7342C12.6283 33.0335 13.347 32.189 14.4706 31.5742ZM27.8756 30.6839C26.4713 30.6839 25.3289 29.4705 25.3289 27.979C25.3289 26.4875 26.4713 25.2742 27.8756 25.2742C29.2798 25.2742 30.4223 26.4875 30.4223 27.979C30.4223 29.4705 29.2798 30.6839 27.8756 30.6839ZM25.2205 31.5734C25.9525 32.1847 26.8743 32.5507 27.8756 32.5507C28.8766 32.5507 29.7982 32.1849 30.5301 31.5739C31.654 32.1887 32.3729 33.0333 32.3729 34.7342V44.1333H27.3942V41.1586C27.3942 39.2719 26.5406 38.2408 25.6289 37.62C25.8261 37.1601 25.9369 36.65 25.9369 36.1127C25.9369 34.6182 25.0854 33.3314 23.8706 32.7682C24.2102 32.2244 24.6945 31.8596 25.2205 31.5734ZM22.4994 34.3315C23.4256 34.3315 24.1791 35.1305 24.1791 36.1128C24.1791 37.0965 23.4256 37.8968 22.4994 37.8968C21.5747 37.8968 20.8223 37.0965 20.8223 36.1128C20.8222 35.1305 21.5746 34.3315 22.4994 34.3315ZM20.499 39.0777C21.0628 39.5087 21.7535 39.7636 22.4994 39.7636C23.2459 39.7636 23.937 39.5088 24.5012 39.0778C25.2124 39.4995 25.6365 40.0644 25.6365 41.1586V44.1333H19.3648V41.1586C19.3648 40.0648 19.7885 39.4998 20.499 39.0777ZM37.35 44.1333H34.1307V34.7342C34.1307 32.202 32.9125 30.8865 31.6789 30.1167C31.9983 29.4784 32.18 28.751 32.18 27.979C32.18 25.4583 30.2491 23.4074 27.8756 23.4074C25.5021 23.4074 23.5711 25.4582 23.5711 27.979C23.5711 28.7511 23.753 29.4787 24.0724 30.1171C23.5145 30.4663 22.9478 30.9368 22.4998 31.5951C22.0511 30.9368 21.4843 30.4663 20.9263 30.1171C21.2457 29.4787 21.4276 28.7512 21.4276 27.9791C21.4276 25.4584 19.4966 23.4075 17.1231 23.4075C14.751 23.4075 12.8212 25.4583 12.8212 27.9791C12.8212 28.7511 13.0029 29.4786 13.3222 30.1169C12.0886 30.8867 10.8706 32.2022 10.8706 34.7342V44.1333H7.6488C7.23257 44.1333 6.88093 43.7598 6.88093 43.3178V27.8284L19.0784 14.8713L21.8891 17.752C22.0594 17.9265 22.2794 18.0138 22.4993 18.0138C22.7194 18.0138 22.9394 17.9265 23.1096 17.752L25.9216 14.87L38.1179 27.8258V43.3178C38.1179 43.7675 37.7734 44.1333 37.35 44.1333Z" fill="url(#paint0_linear)"/>
<path d="M35.6861 17.705C35.3647 17.705 35.056 17.5173 34.9022 17.1909L34.8998 17.1856C34.6827 16.7245 34.8587 16.1637 35.2929 15.9332C35.7267 15.7025 36.255 15.8895 36.4721 16.3506C36.6892 16.8117 36.5143 17.3751 36.0802 17.6056C35.9534 17.673 35.8186 17.705 35.6861 17.705Z" fill="url(#paint1_linear)"/>
<defs>
<linearGradient id="paint0_linear" x1="37.8472" y1="-1.94962e-05" x2="-1.22805" y2="1.29988" gradientUnits="userSpaceOnUse">
<stop stop-color="#FFF9C6"/>
<stop offset="1" stop-color="#FFD8AB"/>
</linearGradient>
<linearGradient id="paint1_linear" x1="37.8472" y1="-1.94962e-05" x2="-1.22805" y2="1.29988" gradientUnits="userSpaceOnUse">
<stop stop-color="#FFF9C6"/>
<stop offset="1" stop-color="#FFD8AB"/>
</linearGradient>
</defs>
</svg>
