<svg width="36" height="52" viewBox="0 0 36 52" fill="none" xmlns="http://www.w3.org/2000/svg">
<path d="M13.0832 3.42512L13.0832 3.42508C13.3548 1.96187 14.6296 0.9 16.1157 0.9H23.8616C25.3476 0.9 26.623 1.96185 26.894 3.42511L35.0477 47.4492C35.0477 47.4492 35.0477 47.4492 35.0477 47.4492C35.2157 48.3544 34.9746 49.2792 34.3864 49.9866C33.7992 50.6934 32.9353 51.1 32.0163 51.1H7.96148C7.04302 51.1 6.1786 50.694 5.59138 49.9866C5.0031 49.2786 4.76261 48.3538 4.93005 47.4487L5.02839 47.4669L4.93006 47.4487L7.6719 32.6433V32.6427L7.67357 32.6337L9.2002 24.3901L6.77169 19.5746C6.58628 19.641 6.39334 19.6811 6.19861 19.6811C5.69857 19.6811 5.20798 19.4677 4.86293 19.0692L4.86282 19.0691L2.21332 15.9984L2.21325 15.9983C1.85499 15.5822 1.71183 15.035 1.81745 14.4978L1.81751 14.4975C1.92479 13.9609 2.26625 13.5106 2.75446 13.2642L13.0832 3.42512ZM13.0832 3.42512L9.80678 21.1164L8.56685 18.6583C9.15378 18.2545 9.45813 17.5398 9.29624 16.826C9.29624 16.826 9.29624 16.826 9.29623 16.8259L8.40078 12.8689L8.40078 12.8689C8.27971 12.3349 7.92605 11.894 7.43128 11.6603L7.43104 11.6602C6.93538 11.4277 6.37016 11.4348 5.88182 11.6818L5.88182 11.6818L5.2175 12.0179L2.80738 7.23892L13.0832 3.42512ZM3.419 12.928L2.75455 13.2642L2.80735 7.23885C2.55657 6.74067 1.95044 6.54068 1.45322 6.79313C0.957398 7.04435 0.75746 7.65107 1.0082 8.14869L1.00822 8.14873L3.419 12.928ZM6.9119 47.8171L6.91192 47.817L9.50264 33.8277H30.4746L33.0659 47.8165L33.0659 47.8165C33.1243 48.1306 33.0408 48.4512 32.8373 48.6968C32.6341 48.9417 32.3341 49.0819 32.0163 49.0819H7.96148C7.64364 49.0819 7.34362 48.9417 7.14038 48.6967C6.93704 48.4517 6.85345 48.1307 6.9119 47.8171ZM6.26011 17.6021L3.9483 14.9216L6.50543 13.6275L7.28733 17.0818L6.26011 17.6021ZM15.0656 3.79344C15.0656 3.79343 15.0656 3.79343 15.0656 3.79342C15.1597 3.28611 15.6015 2.91806 16.1157 2.91806H23.8616C24.3763 2.91806 24.8181 3.28613 24.9122 3.79342C24.9122 3.79343 24.9122 3.79343 24.9122 3.79344L30.102 31.8091H20.9968V22.009H23.6195C24.1766 22.009 24.6275 21.5573 24.6275 21.0002C24.6275 20.4432 24.1767 19.9909 23.6195 19.9909H20.9968V10.0908C20.9968 9.53371 20.546 9.08205 19.9889 9.08205C19.4318 9.08205 18.981 9.53371 18.981 10.0908V16.3548H16.3577C15.8006 16.3548 15.3503 16.8065 15.3503 17.3636C15.3503 17.9205 15.8005 18.3729 16.3577 18.3729H18.981V25.4456H16.3577C15.8005 25.4456 15.3503 25.8974 15.3503 26.4549C15.3503 27.0119 15.8006 27.4637 16.3577 27.4637H18.981V31.8091H15.2002L11.306 24.0887L15.0656 3.79344ZM10.6994 27.3625L12.9422 31.8091H9.87574L10.6994 27.3625Z" fill="url(#paint0_linear)" stroke="url(#paint1_linear)" stroke-width="0.2"/>
<defs>
<linearGradient id="paint0_linear" x1="29.5957" y1="0.999979" x2="0.0552652" y2="1.68307" gradientUnits="userSpaceOnUse">
<stop stop-color="#FFF9C6"/>
<stop offset="1" stop-color="#FFD8AB"/>
</linearGradient>
<linearGradient id="paint1_linear" x1="29.5957" y1="0.999979" x2="0.0552652" y2="1.68307" gradientUnits="userSpaceOnUse">
<stop stop-color="#FFF9C6"/>
<stop offset="1" stop-color="#FFD8AB"/>
</linearGradient>
</defs>
</svg>
